<svg width="29" height="29" viewBox="0 0 29 29" fill="none" xmlns="http://www.w3.org/2000/svg">
<path fill-rule="evenodd" clip-rule="evenodd" d="M3.41731 0.924726C3.73444 0.608047 4.11525 0.362387 4.53449 0.204025C4.95374 0.0456626 5.40185 -0.0217854 5.84913 0.00615048C6.29642 0.0340864 6.73266 0.156768 7.12894 0.366066C7.52523 0.575364 7.87252 0.866499 8.14779 1.22018L11.4011 5.39999C11.9974 6.16672 12.2077 7.16545 11.972 8.10799L10.9806 12.0775C10.9294 12.2831 10.9321 12.4985 10.9887 12.7027C11.0452 12.9069 11.1536 13.0931 11.3032 13.243L15.7564 17.6966C15.9066 17.8466 16.093 17.9551 16.2975 18.0117C16.5021 18.0682 16.7178 18.0708 16.9236 18.0192L20.8911 17.0277C21.3562 16.9114 21.8416 16.9024 22.3107 17.0013C22.7798 17.1002 23.2203 17.3045 23.5989 17.5987L27.7784 20.8505C29.2809 22.0196 29.4186 24.24 28.0738 25.5831L26.1997 27.4573C24.8585 28.7986 22.854 29.3877 20.9853 28.7297C16.2026 27.0468 11.8602 24.3086 8.28009 20.7181C4.69017 17.1383 1.95214 12.7962 0.269095 8.01374C-0.387009 6.14678 0.202035 4.14025 1.54324 2.79894L3.41731 0.924726Z" fill="#103A6F"/>
</svg>
