<svg width="60" height="60" viewBox="0 0 60 60" fill="none" xmlns="http://www.w3.org/2000/svg">
<path fill-rule="evenodd" clip-rule="evenodd" d="M56.25 30C56.25 36.9619 53.4844 43.6387 48.5616 48.5616C43.6387 53.4844 36.9619 56.25 30 56.25C23.0381 56.25 16.3613 53.4844 11.4384 48.5616C6.51561 43.6387 3.75 36.9619 3.75 30C3.75 23.0381 6.51561 16.3613 11.4384 11.4384C16.3613 6.51562 23.0381 3.75 30 3.75C36.9619 3.75 43.6387 6.51562 48.5616 11.4384C53.4844 16.3613 56.25 23.0381 56.25 30ZM-3.8147e-06 30C-3.8147e-06 37.9565 3.1607 45.5871 8.78679 51.2132C14.4129 56.8393 22.0435 60 30 60C37.9565 60 45.5871 56.8393 51.2132 51.2132C56.8393 45.5871 60 37.9565 60 30C60 22.0435 56.8393 14.4129 51.2132 8.7868C45.5871 3.16071 37.9565 0 30 0C22.0435 0 14.4129 3.16071 8.78679 8.7868C3.1607 14.4129 -3.8147e-06 22.0435 -3.8147e-06 30ZM16.875 28.125C16.3777 28.125 15.9008 28.3225 15.5492 28.6742C15.1975 29.0258 15 29.5027 15 30C15 30.4973 15.1975 30.9742 15.5492 31.3258C15.9008 31.6775 16.3777 31.875 16.875 31.875H38.5988L30.5475 39.9225C30.3732 40.0968 30.2349 40.3038 30.1405 40.5316C30.0462 40.7593 29.9976 41.0035 29.9976 41.25C29.9976 41.4965 30.0462 41.7407 30.1405 41.9684C30.2349 42.1962 30.3732 42.4032 30.5475 42.5775C30.7218 42.7518 30.9288 42.8901 31.1566 42.9845C31.3843 43.0788 31.6285 43.1274 31.875 43.1274C32.1215 43.1274 32.3657 43.0788 32.5934 42.9845C32.8212 42.8901 33.0282 42.7518 33.2025 42.5775L44.4525 31.3275C44.6271 31.1533 44.7656 30.9464 44.8602 30.7186C44.9547 30.4908 45.0034 30.2466 45.0034 30C45.0034 29.7534 44.9547 29.5092 44.8602 29.2814C44.7656 29.0536 44.6271 28.8467 44.4525 28.6725L33.2025 17.4225C32.8504 17.0704 32.3729 16.8726 31.875 16.8726C31.3771 16.8726 30.8996 17.0704 30.5475 17.4225C30.1954 17.7746 29.9976 18.2521 29.9976 18.75C29.9976 19.2479 30.1954 19.7254 30.5475 20.0775L38.5988 28.125H16.875Z" fill="#215EAB"/>
</svg>
