<svg width="29" height="29" fill="none" xmlns="http://www.w3.org/2000/svg"><path fill-rule="evenodd" clip-rule="evenodd" d="M3.417.925a3.163 3.163 0 014.73.295l3.254 4.18c.596.767.807 1.765.571 2.708l-.991 3.97a1.229 1.229 0 00.322 1.165l4.453 4.454a1.23 1.23 0 001.168.322l3.967-.991a3.162 3.162 0 012.708.57l4.18 3.253a3.162 3.162 0 01.295 4.732L26.2 27.457c-1.341 1.342-3.346 1.93-5.215 1.273A33.772 33.772 0 018.28 20.718 33.775 33.775 0 01.27 8.014C-.388 6.147.201 4.14 1.542 2.799L3.417.925z" fill="#103A6F"/></svg>